# xmcd
#
# Track frame offsets:
#	150
#	12578
#	25823
#	39685
#	52085
#	65885
#	84590
#	97120
#	109378
#	123128
#	144768
#	159068
#	170648
#	182095
#	200310
#	213548
#	237995
#	249215
#
# Disc length: 3480 seconds
#
# Revision: 1
# Processed by: cddbd v1.5.2PL0 Copyright (c) Steve Scherf et al.
# Submitted via: audiograbber 1.83.01
#
DISCID=fb0d9612
DTITLE=Bobby Bare - Greatest Hits
DYEAR=1900
DGENRE=Country
TTITLE0=500 Miles Away From Home
TTITLE1=Detroit City
TTITLE2=Ride Me Down Easy
TTITLE3=Green Green Grass Of Home
TTITLE4=Marie Laveau
TTITLE5=Tequila Sheila
TTITLE6=Four Strong Winds
TTITLE7=Streets Of Baltimore
TTITLE8=Miller's Cave
TTITLE9=Numbers
TTITLE10=All American Boy
TTITLE11=Shame On Me
TTITLE12=Daddy What If
TTITLE13=The Jogger
TTITLE14=The Mermaid Song
TTITLE15=The Winner
TTITLE16=Please Don't Tell Me How The Story Ends
TTITLE17=Come Sundown (She'll Be Gone)
EXTD=
EXTT0=
EXTT1=
EXTT2=
EXTT3=
EXTT4=
EXTT5=
EXTT6=
EXTT7=
EXTT8=
EXTT9=
EXTT10=
EXTT11=
EXTT12=
EXTT13=
EXTT14=
EXTT15=
EXTT16=
EXTT17=
PLAYORDER=
